<?xml version="1.0"?>
<svg xmlns="http://www.w3.org/2000/svg" xmlns:xlink="http://www.w3.org/1999/xlink" version="1.1" viewBox="0 0 172 172" width="24px" height="24px"><g fill="none" fill-rule="nonzero" stroke="none" stroke-width="1" stroke-linecap="butt" stroke-linejoin="miter" stroke-miterlimit="10" stroke-dasharray="" stroke-dashoffset="0" font-family="none" font-weight="none" font-size="none" text-anchor="none" style="mix-blend-mode: normal"><path d="M0,172v-172h172v172z" fill="none"/><g fill="#ffffff"><path d="M35.83333,21.5c-7.90483,0 -14.33333,6.4285 -14.33333,14.33333v100.33333c0,7.90483 6.4285,14.33333 14.33333,14.33333h47.45117h20.01627h32.86589c7.90483,0 14.33333,-6.4285 14.33333,-14.33333v-100.33333c0,-7.90483 -6.4285,-14.33333 -14.33333,-14.33333zM35.83333,35.83333h100.33333l0.014,100.33333h-32.87989v-28.41472h16.95085l2.51953,-19.52636h-19.35839v-12.44368c-0.00001,-5.64733 1.57386,-9.46224 9.6722,-9.46224h10.23209v-17.42676c-4.98083,-0.50883 -9.98171,-0.7562 -14.99121,-0.74186c-14.86367,0 -25.04134,9.07188 -25.04134,25.72722v14.37532h-16.79688v19.52636h16.79688v28.38672h-47.45117z"/></g></g></svg>
