<?xml version="1.0" encoding="UTF-8" standalone="no"?>
<!-- Created with Inkscape (http://www.inkscape.org/) -->

<svg
   xmlns:dc="http://purl.org/dc/elements/1.1/"
   xmlns:cc="http://creativecommons.org/ns#"
   xmlns:rdf="http://www.w3.org/1999/02/22-rdf-syntax-ns#"
   xmlns:svg="http://www.w3.org/2000/svg"
   xmlns="http://www.w3.org/2000/svg"
   xmlns:sodipodi="http://sodipodi.sourceforge.net/DTD/sodipodi-0.dtd"
   xmlns:inkscape="http://www.inkscape.org/namespaces/inkscape"
   width="800"
   height="400"
   viewBox="0 0 211.66666 105.83334"
   version="1.1"
   id="svg8"
   inkscape:export-filename="/home/tuyen/design/logo-imprimer.svg.png"
   inkscape:export-xdpi="300"
   inkscape:export-ydpi="300"
   inkscape:version="0.92.4 (33fec40, 2019-01-16)"
   sodipodi:docname="logo-losfizio-white.svg">
  <defs
     id="defs2" />
  <sodipodi:namedview
     id="base"
     pagecolor="#ffffff"
     bordercolor="#666666"
     borderopacity="1.0"
     inkscape:pageopacity="0.0"
     inkscape:pageshadow="2"
     inkscape:zoom="0.44998193"
     inkscape:cx="634.54411"
     inkscape:cy="47.378562"
     inkscape:document-units="mm"
     inkscape:current-layer="layer1"
     showgrid="false"
     showguides="true"
     inkscape:guide-bbox="true"
     inkscape:window-width="1366"
     inkscape:window-height="713"
     inkscape:window-x="1920"
     inkscape:window-y="27"
     inkscape:window-maximized="1"
     units="px">
    <sodipodi:guide
       position="156.37573,206.2603"
       orientation="1,0"
       id="guide847"
       inkscape:locked="false" />
    <sodipodi:guide
       position="52.714894,205.90651"
       orientation="1,0"
       id="guide849"
       inkscape:locked="false" />
    <sodipodi:guide
       position="104.72221,192.46244"
       orientation="0,1"
       id="guide851"
       inkscape:locked="false" />
    <sodipodi:guide
       position="117.01617,247.66651"
       orientation="0,1"
       id="guide853"
       inkscape:locked="false" />
    <sodipodi:guide
       position="46.700444,238.8091"
       orientation="1,0"
       id="guide87"
       inkscape:locked="false" />
    <sodipodi:guide
       position="76.242012,253.49144"
       orientation="0,1"
       id="guide89"
       inkscape:locked="false" />
    <sodipodi:guide
       position="93.754679,186.44799"
       orientation="0,1"
       id="guide91"
       inkscape:locked="false" />
    <sodipodi:guide
       position="162.56707,214.5744"
       orientation="1,0"
       id="guide93"
       inkscape:locked="false" />
  </sodipodi:namedview>
  <metadata
     id="metadata5">
    <rdf:RDF>
      <cc:Work
         rdf:about="">
        <dc:format>image/svg+xml</dc:format>
        <dc:type
           rdf:resource="http://purl.org/dc/dcmitype/StillImage" />
        <dc:title />
      </cc:Work>
    </rdf:RDF>
  </metadata>
  <g
     inkscape:groupmode="layer"
     id="layer2"
     inkscape:label="Layer 2"
     style="display:inline"
     transform="translate(0,-191.16665)" />
  <g
     inkscape:label="Layer 1"
     inkscape:groupmode="layer"
     id="layer1"
     transform="translate(0,-191.16665)">
    <path
       style="font-style:normal;font-variant:normal;font-weight:normal;font-stretch:normal;font-size:47.69301224px;line-height:1.25;font-family:Rhesmanisa;-inkscape-font-specification:Rhesmanisa;letter-spacing:0px;word-spacing:0px;fill:#ffffff;fill-opacity:1;stroke:#ffffff;stroke-width:0.30000001;stroke-miterlimit:4;stroke-dasharray:none;stroke-opacity:1"
       d="m 116.90958,200.6566 c -2.05448,0 -4.34671,0.14018 -6.81424,0.415 -0.61689,0.0688 -1.24477,0.14587 -1.88263,0.23136 -17.222846,2.30913 -41.749035,10.71337 -54.626173,23.71435 -3.962283,3.96224 -5.503178,7.55775 -4.769425,10.78625 1.330031,3.99013 7.404385,6.47759 12.014359,7.47498 10.296434,2.22773 12.475491,2.63231 22.458271,3.84178 4.730324,0.57311 14.859942,2.30754 18.791548,3.52709 24.10471,7.47709 3.2967,21.85178 -13.920793,27.61026 -17.217504,5.75847 -28.704901,7.2176 -43.256262,6.38666 -9.064323,-0.5176 -19.615799,-4.47181 -14.602188,-12.40687 5.013612,-7.93506 16.898963,-13.09654 25.102155,-15.50755 8.203191,-2.41101 11.233852,-2.74724 11.775003,-3.63194 0.541151,-0.8847 -1.205039,-1.33132 -5.133299,-0.26004 -1.964177,0.53564 -9.833123,2.89443 -16.899928,6.06566 -7.066824,3.1712 -18.807824,11.44685 -19.055439,17.96665 -0.247616,6.5198 8.864334,8.93939 21.5616,9.55806 12.697286,0.61867 28.61846,-1.57069 44.623955,-7.54838 16.005476,-5.97768 31.986216,-20.55986 16.094836,-27.77901 -1.59737,-0.72565 -7.74175,-3.02663 -15.469296,-4.06176 -12.87884,-1.72518 -25.286341,-3.58176 -32.483537,-5.74954 -3.361099,-1.01236 -8.047,-2.58683 -8.911163,-5.61143 -0.660383,-2.64151 0.733242,-5.64976 4.181899,-9.0984 14.895155,-15.04191 46.006337,-23.70002 61.855427,-23.70002 2.56812,0 4.76974,0.21997 6.67751,0.80697 0.009,0.004 0.0193,0.008 0.0286,0.01 1.61696,0.65771 3.29366,1.76875 3.66513,3.56414 0.0133,0.10552 0.0233,0.21943 0.0271,0.34266 0.0563,1.84801 -1.17713,5.69079 -8.53869,11.46998 -0.40627,0.59901 -0.3608,1.12019 0.16387,1.46605 0.6138,0.18414 1.59717,0.40042 1.8664,0.24334 6.7505,-5.35637 9.83193,-9.90546 9.17155,-13.64759 -0.29111,-1.60112 -1.59653,-3.85034 -5.77038,-5.24725 -0.002,-4.5e-4 -0.004,-0.001 -0.004,-0.001 -0.3013,-0.12067 -0.61365,-0.23854 -0.95087,-0.34902 -0.45859,-0.12844 -0.95373,-0.24792 -1.48114,-0.35457 -0.5274,-0.10666 -1.08731,-0.20026 -1.67436,-0.27827 -1.17406,-0.1561 -2.45793,-0.24805 -3.81537,-0.24805 z"
       id="path5395"
       inkscape:connector-curvature="0"
       sodipodi:nodetypes="ccsccssszszzzsszzzsssccsccccccccccccccc"
       inkscape:export-filename="/home/tuyen/sites/projet/LoSfizio/assets/images/blacklogo.png"
       inkscape:export-xdpi="72"
       inkscape:export-ydpi="72" />
    <text
       xml:space="preserve"
       style="font-style:normal;font-variant:normal;font-weight:normal;font-stretch:normal;font-size:96.23490143px;line-height:1.25;font-family:Rhesmanisa;-inkscape-font-specification:Rhesmanisa;letter-spacing:0px;word-spacing:0px;fill:#ffffff;fill-opacity:1;stroke:none;stroke-width:0.30000001;stroke-miterlimit:4;stroke-dasharray:none;stroke-opacity:1"
       x="124.31071"
       y="265.68829"
       id="text5441"
       inkscape:export-filename="/home/tuyen/sites/projet/LoSfizio/assets/images/blacklogo.png"
       inkscape:export-xdpi="72"
       inkscape:export-ydpi="72"><tspan
         sodipodi:role="line"
         id="tspan5439"
         x="124.31071"
         y="265.68829"
         style="font-style:normal;font-variant:normal;font-weight:normal;font-stretch:normal;font-family:Rhesmanisa;-inkscape-font-specification:Rhesmanisa;fill:#ffffff;fill-opacity:1;stroke:none;stroke-width:0.30000001;stroke-miterlimit:4;stroke-dasharray:none;stroke-opacity:1">fizio</tspan></text>
    <path
       id="path5518"
       style="font-style:normal;font-variant:normal;font-weight:normal;font-stretch:normal;font-size:47.69301224px;line-height:1.25;font-family:Rhesmanisa;-inkscape-font-specification:Rhesmanisa;letter-spacing:0px;word-spacing:0px;fill:#47c400;fill-opacity:1;stroke:none;stroke-width:0.26458338"
       d="m 144.29965,233.53128 c 0.76033,-0.1901 1.23554,-0.57023 1.8058,-1.6157 -0.0951,-0.57024 -1.52067,-0.76033 -2.28102,-0.57024 -0.38016,0.0951 -0.66529,0.57024 -0.85536,0.95042 l -0.28513,0.57023 c -0.57025,0.95042 0.95042,0.85539 1.71075,0.66529 z m -0.91905,-0.6127 c 0.76033,-0.19011 1.23554,-0.57026 1.8058,-1.6157 -0.0951,-0.57026 -1.52067,-0.76035 -2.28099,-0.57026 -0.38019,0.0951 -0.66531,0.57026 -0.85539,0.95042 l -0.28513,0.57025 c -0.57025,0.95042 0.95042,0.85539 1.71075,0.66529 z m 0,0.6127 c 0.76033,-0.1901 1.23554,-0.57023 1.8058,-1.6157 -0.0951,-0.57024 -1.52067,-0.76033 -2.28099,-0.57024 -0.38019,0.0951 -0.66531,0.57024 -0.85539,0.95042 l -0.28513,0.57023 c -0.57025,0.95042 0.95042,0.85539 1.71075,0.66529 z"
       inkscape:connector-curvature="0"
       inkscape:export-filename="/home/tuyen/sites/projet/LoSfizio/assets/images/blacklogo.png"
       inkscape:export-xdpi="72"
       inkscape:export-ydpi="72" />
    <path
       inkscape:connector-curvature="0"
       d="m 175.70059,233.85515 c 0.77283,-0.19324 1.25588,-0.57962 1.83551,-1.6423 -0.0967,-0.57962 -1.54569,-0.77284 -2.31856,-0.57962 -0.38641,0.0967 -0.67624,0.57962 -0.86944,0.96606 l -0.28981,0.57962 c -0.57964,0.96606 0.96606,0.86947 1.7389,0.67624 z m -0.93419,-0.62279 c 0.77285,-0.19323 1.25588,-0.57964 1.83553,-1.64229 -0.0967,-0.57965 -1.54571,-0.77286 -2.31854,-0.57965 -0.38644,0.0967 -0.67626,0.57965 -0.86946,0.96606 l -0.28982,0.57965 c -0.57964,0.96606 0.96606,0.86946 1.7389,0.67623 z m 0,0.62279 c 0.77285,-0.19324 1.25588,-0.57962 1.83553,-1.6423 -0.0967,-0.57962 -1.54571,-0.77284 -2.31854,-0.57962 -0.38644,0.0967 -0.67626,0.57962 -0.86946,0.96606 l -0.28982,0.57962 c -0.57964,0.96606 0.96606,0.86947 1.7389,0.67624 z"
       style="font-style:normal;font-variant:normal;font-weight:normal;font-stretch:normal;font-size:47.69301224px;line-height:1.25;font-family:Rhesmanisa;-inkscape-font-specification:Rhesmanisa;letter-spacing:0px;word-spacing:0px;fill:#d60300;fill-opacity:1;stroke:none;stroke-width:0.26458341"
       id="path5516"
       inkscape:export-filename="/home/tuyen/sites/projet/LoSfizio/assets/images/blacklogo.png"
       inkscape:export-xdpi="72"
       inkscape:export-ydpi="72" />
    <text
       id="text5545"
       y="252.78168"
       x="8.1640043"
       style="font-style:normal;font-weight:normal;font-size:20.74669647px;line-height:1.25;font-family:sans-serif;letter-spacing:0px;word-spacing:0px;fill:#ffffff;fill-opacity:1;stroke:none;stroke-width:0.26458341"
       xml:space="preserve"
       inkscape:export-filename="/home/tuyen/sites/projet/LoSfizio/assets/images/blacklogo.png"
       inkscape:export-xdpi="72"
       inkscape:export-ydpi="72"><tspan
         rotate="0 0 357 0"
         style="font-size:53.46383286px;fill:#ffffff;fill-opacity:1;stroke-width:0.26458341"
         y="252.78168"
         x="8.1640043"
         id="tspan5541"
         sodipodi:role="line"><tspan
   rotate="357 357 0"
   id="tspan5539"
   style="font-style:normal;font-variant:normal;font-weight:normal;font-stretch:normal;font-size:53.46383286px;font-family:Rhesmanisa;-inkscape-font-specification:Rhesmanisa;fill:#ffffff;fill-opacity:1;stroke-width:0.26458341">Lo</tspan> </tspan><tspan
         id="tspan5543"
         rotate="0 0 353.49997 0"
         style="font-size:65.70840454px;fill:#ffffff;fill-opacity:1;stroke-width:0.26458341"
         y="290.66449"
         x="8.1640043"
         sodipodi:role="line" /></text>
  </g>
</svg>
