<?xml version="1.0"?>
<svg xmlns="http://www.w3.org/2000/svg" xmlns:xlink="http://www.w3.org/1999/xlink" version="1.1" viewBox="0 0 172 172" width="24px" height="24px"><g fill="none" fill-rule="nonzero" stroke="none" stroke-width="1" stroke-linecap="butt" stroke-linejoin="miter" stroke-miterlimit="10" stroke-dasharray="" stroke-dashoffset="0" font-family="none" font-weight="none" font-size="none" text-anchor="none" style="mix-blend-mode: normal"><path d="M0,172v-172h172v172z" fill="none"/><g fill="#ffffff"><path d="M35.83333,21.5c-7.90483,0 -14.33333,6.4285 -14.33333,14.33333v100.33333c0,7.90483 6.4285,14.33333 14.33333,14.33333h100.33333c7.90483,0 14.33333,-6.4285 14.33333,-14.33333v-100.33333c0,-7.90483 -6.4285,-14.33333 -14.33333,-14.33333zM35.83333,35.83333h100.33333l0.014,100.33333h-100.34733zM104.39258,50.97852c-9.83267,0 -17.81868,7.99319 -17.81868,17.81869c0,1.84183 0.61589,3.0717 0.61589,4.2972c-14.74183,-0.60917 -27.63926,-7.97874 -36.23926,-18.42058c-1.84183,2.45817 -2.46354,5.5199 -2.46354,8.5944c0,6.14183 3.07618,11.06914 7.99251,15.36914c-3.06733,-0.61633 -5.53435,-1.23804 -7.99251,-2.46354c0,8.6 6.13971,15.36097 14.12337,17.2028c-1.84183,0.61633 -3.07125,0.61588 -4.91309,0.61588c-0.61633,0 -1.85393,-0.61588 -3.07943,-0.61588c2.45817,6.75817 8.60325,12.27572 16.58691,12.27572c-6.14183,4.29999 -14.13222,7.37662 -22.11589,7.37662h-4.2972c7.98367,4.90917 17.20347,7.99252 27.02897,7.99252c32.55817,0 50.37663,-27.0348 50.37663,-50.37663v-2.46354c3.0745,-2.45817 6.1359,-5.52628 8.6084,-9.22428c-3.68367,1.849 -6.75839,2.46309 -10.44206,3.07943c3.68367,-2.451 6.75301,-5.52617 7.97851,-9.82617c-3.0745,1.84183 -6.75794,3.68087 -11.05794,4.2972c-3.0745,-3.68367 -7.97527,-5.52897 -12.8916,-5.52897z"/></g></g></svg>
